{"title":"Ice Age-2 The Meltdown(2006)Bluray Rip In[Hindi-Eng]By !!!dip","uid":6522209,"size":2123368104,"categoryP":"video","categoryS":"hd___movies","magnet":"?xt=urn:btih:50d56815daf8561b1e20667ec73204c59cc13e2e&amp;dn=Ice+Age-2+The+Meltdown%282006%29Bluray+Rip+In%5BHindi-Eng%5DBy+%21%21%21dip&amp;tr=udp%3A%2F%2Ftracker.openbittorrent.com%3A80&amp;tr=udp%3A%2F%2Fopen.demonii.com%3A1337&amp;tr=udp%3A%2F%2Ftracker.coppersurfer.tk%3A6969&amp;tr=udp%3A%2F%2Fexodus.desync.com%3A6969","seeders":0,"leechers":1,"uploader":"dipty","files":-1,"time":1310037742,"description":"          =!HD DESI ROCKER RELEASES!=/=!DK GROUP HD BLURAY RELEAESEES!=\n\n===================================================================================\n\n        Ice Age-2 The Meltdown (2006) Bluray Rip In [Hindi-Eng] By !!!dip\n\n===================================================================================\n\nStoryline:\n\nManny the woolly mammoth, Sid the sloth, Diego the saber-toothed tiger, and the hapless prehistoric squirrel/rat known as Scrat are still together and enjoying the perks of their now melting world. Manny may be ready to start a family, but nobody has seen another mammoth for a long time; Manny thinks he may be the last one. That is, until he miraculously finds Ellie, the only female mammoth left in the world. Their only problems: They can't stand each other--and Ellie somehow thinks she's a possum! Ellie comes with some excess baggage in the form of her two possum &quot;brothers&quot;-- Crash and Eddie, a couple of daredevil pranksters and cocky, loud-mouthed troublemakers. Manny, Sid and Diego quickly learn that the warming climate has one major drawback: A huge glacial dam holding off oceans of water is about to break, threatening the entire valley. The only chance of survival lies at the other end of the valley... Written by gavin (&lt;a class=&quot;__cf_email__&quot; href=&quot;/cdn-cgi/l/email-protection&quot; data-cfemail=&quot;2f485a41424e5c5b4a5d626f47405b424e4643014c4042&quot;&gt;[email&amp;#160;protected]&lt;/a&gt;&lt;script cf-hash='f9e31' type=&quot;text/javascript&quot;&gt;\n/* &lt;![CDATA[ */!function(){try{var t=&quot;currentScript&quot;in document?document.currentScript:function(){for(var t=document.getElementsByTagName(&quot;script&quot;),e=t.length;e--;)if(t[e].getAttribute(&quot;cf-hash&quot;))return t[e]}();if(t&amp;&amp;t.previousSibling){var e,r,n,i,c=t.previousSibling,a=c.getAttribute(&quot;data-cfemail&quot;);if(a){for(e=&quot;&quot;,r=parseInt(a.substr(0,2),16),n=2;a.length-n;n+=2)i=parseInt(a.substr(n,2),16)^r,e+=String.fromCharCode(i);e=document.createTextNode(e),c.parentNode.replaceChild(e,c)}}}catch(u){}}();/* ]]&gt; */&lt;/script&gt;)\n \n\nCast:\n\nRay Romano..............Manny (voice)\nJohn Leguizamo..........Sid (voice)\nDenis Leary.............Diego (voice)\nSeann William Scott.....Crash (voice)\nJosh Peck...............Eddie (voice)\nQueen Latifah...........Ellie (voice)\nWill Arnett.............Lone Gunslinger Vulture (voice)\nJay Leno................Fast Tony (voice)\nChris Wedge.............Scrat (voice)\nPeter Ackerman..........Dung Beetle Dad (voice)\nCaitlin Rose Anderson...Glypto Boy Billy / Beaver Girl (voice)\nConnor Anderson.........Rhino Boy / Beaver Boy (voice)\nJoseph Bologna..........Mr. Start (voice)\nJack Crocicchia.........Elk Boy (voice)\nPeter DeSÃƒÂ¨ve............Condor Chick (voice)\n\nDirectors               :Carlos Saldanha\nWriters                 :Gerry Swallow , Peter Gaulke (screenplay)\nStars                   :Ray Romano, John Leguizamo and Denis Leary\nFormat                  :Color,MKV,Widescreen\nLanguage                :Hindi-English\nRelease Date            :21 April 2006 (India)\nRun Time                :1H:26M:53S\nColor                   :Color\nSUBTITLE                :English\n\n\nVideo Specifications:\n\nFormat: H.264/MPEG-4 AVC\nBitrate:448 kb/ps\nFramerate:23.976 FPS\n\nRelease Title/Year/Language...:Ice Age-2 The Meltdown (2006) Bluray Rip In [Hindi-Eng] By !!!dip\nGenre.....................: Animation | Action | Adventure  \nSource....................: Bluray\nBit rate..................: 2 749 Kbps\nWidth.....................: 1280 pixels\nHeight....................: 688 pixels\nDisplay aspect ratio......: 1.860\nFrame rate................: 25.000 fps\nOriginal frame rate.......: 23.976 fps\nColor space...............: YUV\nChroma subsampling........: 4:2:0\nBit depth.................: 8 bits\nScan type.................: Progressive\nBits/(Pixel*Frame)........: 0.125\nStream size...............: 1.70 GiB (87%)\nTitle.....................: !!!dip\nResolution................: 1280 x 688 pixels\nTeam......................: DK GROUP HD BLURAY RELEAESEES/HD DESI ROCKER RELEAESEES\n\n\nAudio Specifications:\n\nAudio #1\nID                               : 2\nFormat                           : AC-3\nFormat/Info                      : Audio Coding 3\nMode extension                   : CM (complete main)\nMuxing mode                      : Header stripping\nCodec ID                         : A_AC3\nDuration                         : 1h 26mn\nBit rate mode                    : Constant\nBit rate                         : 192 Kbps\nChannel(s)                       : 2 channels\nChannel positions                : Front: L R\nSampling rate                    : 48.0 KHz\nBit depth                        : 16 bits\nCompression mode                 : Lossy\nDelay relative to video          : 1s 0ms\nStream size                      : 119 MiB (6%)\nTitle                            : !!!dip\nLanguage                         : English\n\nAudio #2\nID                               : 3\nFormat                           : MPEG Audio\nFormat version                   : Version 1\nFormat profile                   : Layer 3\nMuxing mode                      : Header stripping\nCodec ID                         : A_MPEG/L3\nCodec ID/Hint                    : MP3\nDuration                         : 1h 26mn\nBit rate mode                    : Constant\nBit rate                         : 160 Kbps\nChannel(s)                       : 2 channels\nSampling rate                    : 44.1 KHz\nCompression mode                 : Lossy\nDelay relative to video          : 1s 0ms\nStream size                      : 99.4 MiB (5%)\nTitle                            : !!!dip\nLanguage                         : Hindi\n\n\nSAMPLE IMAGE:\n &lt;a href=&quot;\nhttp://www.pix2links.com/images/77486439907537382207.jpg&quot; rel=&quot;nofollow&quot; target=&quot;_NEW&quot;&gt;\nhttp://www.pix2links.com/images/77486439907537382207.jpg&lt;/a&gt;\n &lt;a href=&quot;\nhttp://www.pix2links.com/images/09728806023315237341.jpg&quot; rel=&quot;nofollow&quot; target=&quot;_NEW&quot;&gt;\nhttp://www.pix2links.com/images/09728806023315237341.jpg&lt;/a&gt;\n &lt;a href=&quot;\nhttp://www.pix2links.com/images/97749038146252292270.jpg&quot; rel=&quot;nofollow&quot; target=&quot;_NEW&quot;&gt;\nhttp://www.pix2links.com/images/97749038146252292270.jpg&lt;/a&gt;\n &lt;a href=&quot;\nhttp://www.pix2links.com/images/03423320931438959492.jpg&quot; rel=&quot;nofollow&quot; target=&quot;_NEW&quot;&gt;\nhttp://www.pix2links.com/images/03423320931438959492.jpg&lt;/a&gt;\n &lt;a href=&quot;\nhttp://www.pix2links.com/images/39346522582718284767.jpg&quot; rel=&quot;nofollow&quot; target=&quot;_NEW&quot;&gt;\nhttp://www.pix2links.com/images/39346522582718284767.jpg&lt;/a&gt;\n\nSAMPLE VIDEO INCLUDED:\n ","torrent":{"xt":"urn:btih:50d56815daf8561b1e20667ec73204c59cc13e2e","amp;dn":"Ice+Age-2+The+Meltdown%282006%29Bluray+Rip+In%5BHindi-Eng%5DBy+%21%21%21dip","amp;tr":["udp%3A%2F%2Ftracker.openbittorrent.com%3A80","udp%3A%2F%2Fopen.demonii.com%3A1337","udp%3A%2F%2Ftracker.coppersurfer.tk%3A6969","udp%3A%2F%2Fexodus.desync.com%3A6969"],"infoHash":"50d56815daf8561b1e20667ec73204c59cc13e2e","infoHashBuffer":{"type":"Buffer","data":[80,213,104,21,218,248,86,27,30,32,102,126,199,50,4,197,156,193,62,46]},"announce":[],"urlList":[]}}